<?xml version="1.0" encoding="utf-8"?>
<!-- Generator: Adobe Illustrator 19.0.0, SVG Export Plug-In . SVG Version: 6.00 Build 0)  -->
<svg version="1.1" id="layer" xmlns="http://www.w3.org/2000/svg" xmlns:xlink="http://www.w3.org/1999/xlink" x="0px" y="0px"
	 viewBox="-153 -46 652 652" style="enable-background:new -153 -46 652 652;" xml:space="preserve">
<style type="text/css">
	.st0{fill:#0F69A0;}
	.st1{fill:#1D2D5C;}
	.st2{fill:#00A4E4;}
	.st3{fill:#36AC91;}
	.st4{fill:#6CB33F;}
</style>
<g id="full-rgb">
	<path id="fullLogo" class="st0" d="M-116,284.6c-5.1-5.1-5.1-13.4,0-18.5c5.1-5.1,13.4-5.1,18.5,0c3.4,3.4,4.7,8.4,3.3,13
		c-0.1,0.3,0,0.6,0.2,0.8l6.4,6.4c0.3,0.3,0.8,0.3,1.1,0c0.1-0.1,0.1-0.1,0.2-0.2c6-11.3,1.7-25.3-9.6-31.3
		c-11.3-6-25.3-1.7-31.3,9.6c-6,11.3-1.7,25.3,9.6,31.3c6.8,3.6,14.9,3.6,21.7,0c0.4-0.2,0.5-0.7,0.3-1.1c0-0.1-0.1-0.1-0.2-0.2
		l-6.5-6.4c-0.2-0.2-0.5-0.3-0.8-0.2C-107.6,289.3-112.6,288-116,284.6z"/>
	<path id="fullLogo-2" class="st1" d="M-115.9,315.6c5.1-5.1,13.4-5.1,18.5,0c5.1,5.1,5.1,13.4,0,18.5c-3.4,3.4-8.4,4.7-13,3.3
		c-0.3-0.1-0.6,0-0.8,0.2l-6.4,6.4c-0.3,0.3-0.3,0.8,0,1.2c0.1,0.1,0.1,0.1,0.2,0.1c11.3,6,25.3,1.7,31.3-9.6
		c6-11.3,1.7-25.3-9.6-31.3s-25.3-1.7-31.3,9.6c-3.6,6.8-3.6,14.9,0,21.7c0.2,0.4,0.7,0.5,1.1,0.3c0.1,0,0.1-0.1,0.2-0.2l6.4-6.4
		c0.2-0.2,0.3-0.5,0.2-0.8C-120.6,324-119.3,319-115.9,315.6z"/>
	<path id="fullLogo-3" class="st0" d="M-56.9,337.9c-7.2,0-13.1-5.8-13.1-13c0-7.2,5.8-13.1,13-13.1c4.8,0,9.3,2.6,11.5,6.9
		c0.1,0.3,0.4,0.4,0.7,0.4h9.1c0.5,0,0.8-0.4,0.8-0.8c0-0.1,0-0.2,0-0.2c-3.7-12.2-16.7-19.1-28.9-15.3s-19.1,16.7-15.3,28.9
		c3.7,12.2,16.7,19.1,28.9,15.3c7.3-2.3,13.1-8,15.3-15.3c0.1-0.4-0.1-0.9-0.6-1c-0.1,0-0.1,0-0.2,0h-9.1c-0.3,0-0.6,0.2-0.7,0.4
		C-47.7,335.3-52.1,337.9-56.9,337.9z"/>
	<path id="fullLogo-4" class="st2" d="M-70,275.4c0-7.2,5.8-13.1,13-13.1s13.1,5.8,13.1,13c0,4.8-2.6,9.2-6.9,11.5
		c-0.3,0.1-0.4,0.4-0.4,0.7v9.1c0,0.4,0.4,0.8,0.8,0.8c0.1,0,0.2,0,0.2,0c12.2-3.7,19.1-16.7,15.3-28.9
		c-3.7-12.2-16.7-19.1-28.9-15.3s-19.1,16.7-15.3,28.9c2.3,7.3,8,13.1,15.3,15.3c0.4,0.1,0.9-0.1,1-0.6c0-0.1,0-0.2,0-0.2v-9.1
		c0-0.3-0.2-0.6-0.4-0.7C-67.3,284.6-70,280.2-70,275.4z"/>
	<path id="fullLogo-5" class="st2" d="M-93.7,225.9c0,7.2-5.8,13.1-13.1,13.1c-7.2,0-13.1-5.8-13.1-13.1c0-4.8,2.6-9.2,6.9-11.5
		c0.3-0.1,0.4-0.4,0.4-0.7v-9.1c0-0.4-0.3-0.8-0.8-0.8c-0.1,0-0.2,0-0.2,0c-12.2,3.7-19.1,16.7-15.3,28.9
		c3.7,12.2,16.7,19.1,28.9,15.3s19.1-16.7,15.3-28.9c-2.3-7.3-8-13.1-15.3-15.3c-0.4-0.1-0.9,0.1-1,0.6c0,0.1,0,0.1,0,0.2v9.1
		c0,0.3,0.2,0.6,0.4,0.7C-96.3,216.7-93.7,221.1-93.7,225.9z"/>
	<path id="fullLogo-6" class="st2" d="M2.1,315.6c5.1,5.1,5.1,13.4,0,18.5c-5.1,5.1-13.4,5.1-18.5,0c-3.4-3.4-4.7-8.4-3.3-13
		c0.1-0.3,0-0.6-0.2-0.8l-6.4-6.5c-0.3-0.3-0.8-0.3-1.2,0c-0.1,0.1-0.1,0.1-0.1,0.2c-6,11.3-1.7,25.3,9.6,31.3
		c11.3,6,25.3,1.7,31.3-9.6c6-11.3,1.7-25.3-9.6-31.3c-6.8-3.6-14.9-3.6-21.7,0c-0.4,0.2-0.5,0.7-0.3,1.1c0,0.1,0.1,0.1,0.2,0.2
		l6.4,6.4c0.2,0.2,0.5,0.3,0.8,0.2C-6.3,311-1.3,312.2,2.1,315.6z"/>
	<path id="fullLogo-7" class="st3" d="M2.1,284.6c-5.1,5.1-13.4,5.1-18.5,0c-5.1-5.1-5.1-13.4,0-18.5c3.4-3.4,8.4-4.7,13-3.3
		c0.3,0.1,0.6,0,0.8-0.2l6.4-6.4c0.3-0.3,0.3-0.9,0-1.2c0,0-0.1-0.1-0.2-0.1c-11.3-6-25.3-1.7-31.3,9.6c-6,11.3-1.7,25.3,9.6,31.3
		s25.3,1.7,31.3-9.6c3.6-6.8,3.6-14.9,0-21.7c-0.2-0.4-0.7-0.6-1.1-0.3c-0.1,0-0.1,0.1-0.2,0.1l-6.4,6.4c-0.2,0.2-0.3,0.5-0.2,0.8
		C6.7,276.2,5.5,281.2,2.1,284.6z"/>
	<path id="fullLogo-8" class="st4" d="M-6.9,239c-7.2,0-13.1-5.8-13.1-13s5.8-13.1,13-13.1c4.8,0,9.2,2.6,11.5,6.9
		c0.1,0.3,0.4,0.4,0.7,0.4h9.1c0.5,0,0.8-0.4,0.8-0.8c0-0.1,0-0.1,0-0.2c-3.7-12.2-16.7-19.1-28.9-15.3
		c-12.2,3.7-19.1,16.7-15.3,28.9c3.7,12.2,16.7,19.1,28.9,15.3c7.3-2.3,13.1-8,15.3-15.3c0.1-0.4-0.1-0.9-0.6-1c-0.1,0-0.1,0-0.2,0
		H5.3c-0.3,0-0.6,0.2-0.7,0.4C2.3,236.3-2.1,238.9-6.9,239z"/>
	<path id="fullLogo-9" class="st3" d="M-66.1,216.7c5.1-5.1,13.4-5.1,18.5,0c5.1,5.1,5.1,13.4,0,18.5c-3.4,3.4-8.4,4.7-13,3.3
		c-0.3-0.1-0.6,0-0.8,0.2l-6.4,6.4c-0.3,0.3-0.3,0.8,0,1.1c0.1,0.1,0.1,0.1,0.2,0.2c11.3,6,25.3,1.7,31.3-9.6
		c6-11.3,1.7-25.3-9.6-31.3s-25.3-1.7-31.3,9.6c-3.6,6.8-3.6,14.9,0,21.7c0.2,0.4,0.7,0.5,1.1,0.3c0.1,0,0.1-0.1,0.2-0.1l6.4-6.4
		c0.2-0.2,0.3-0.5,0.2-0.8C-70.8,225.1-69.5,220.1-66.1,216.7z"/>
	<path id="fullLogo-10" class="st1" d="M63.8,230c0-1.4,1.2-2.5,2.6-2.6h12.7c1.4,0.1,2.5,1.2,2.6,2.6v90.4c0,1.4-1.2,2.6-2.6,2.6
		H66.4c-1.4-0.1-2.5-1.2-2.6-2.6L63.8,230z"/>
	<path id="fullLogo-11" class="st1" d="M103,309.7l4.9-8.5c0.9-1.5,2.8-2,4.3-1.1c0.1,0.1,0.2,0.1,0.3,0.2
		c0.7,0.4,11.8,8.5,20.6,8.5c7.1,0,12.4-4.6,12.4-10.5c0-7-5.9-11.8-17.4-16.4c-12.7-5.2-25.6-13.4-25.6-29.5
		c0-12.2,9-26.2,30.7-26.2c9.8,0.2,19.4,3.4,27.3,9.2c1.4,1.1,1.8,3,0.8,4.5l-5.2,7.8c-1.1,1.6-3.1,2.7-4.8,1.6
		c-1.1-0.7-11.5-7.5-19-7.5c-7.8,0-12,5.2-12,9.6c0,6.4,5.1,10.8,16.2,15.3c13.2,5.3,28.6,13.2,28.6,30.9
		c0,14.1-12.2,27.1-31.4,27.1c-17.2,0-27.3-8.1-30.1-10.7C102.5,312.5,101.8,311.9,103,309.7z"/>
	<path id="fullLogo-12" class="st1" d="M171.5,319.5l42.5-91.9c0.4-0.9,1.3-1.5,2.3-1.5h1.4c1-0.1,1.9,0.5,2.3,1.5l42.1,91.9
		c0.6,1.2,0.2,2.7-1,3.3c-0.4,0.2-0.9,0.3-1.3,0.3h-11.9c-1.8,0.1-3.4-1-4-2.7l-6.7-14.7h-40.8l-6.7,14.7c-0.6,1.7-2.2,2.8-4,2.7
		h-11.9c-1.3,0.1-2.5-0.9-2.6-2.2C171.2,320.4,171.3,319.9,171.5,319.5z M230.6,290.4l-13.7-30.1h-0.4l-13.4,30.1H230.6z"/>
	<path id="fullLogo-13" class="st1" d="M316.8,226.1c12.3-0.3,24.2,4.3,33.1,12.7c1.1,0.9,1.3,2.5,0.4,3.6c-0.1,0.1-0.2,0.2-0.2,0.3
		l-8.3,8.6c-0.7,0.9-2.1,1.1-3.1,0.4c-0.1-0.1-0.3-0.2-0.4-0.4c-5.8-5.1-13.3-8-21-8.1c-17.5,0-30.5,14.7-30.5,31.8
		c0,17.1,13.1,31.6,30.6,31.6c7.7-0.1,15.1-2.8,20.9-7.8c1-0.9,2.4-0.9,3.4,0l8.5,8.8c1,1.1,0.9,2.7-0.1,3.7c0,0,0,0,0,0
		c-8.9,8.6-20.8,13.4-33.2,13.2c-27.2,0.5-49.6-21.2-50-48.3c-0.5-27.2,21.2-49.6,48.3-50C315.7,226.1,316.2,226.1,316.8,226.1
		L316.8,226.1z"/>
	<path id="fullLogo-14" class="st1" d="M357.5,319.5l42.5-91.9c0.4-0.9,1.3-1.5,2.3-1.5h1.4c1-0.1,1.9,0.5,2.3,1.5l42.1,91.9
		c0.6,1.2,0.2,2.6-1,3.3c-0.4,0.2-0.9,0.3-1.4,0.3h-11.9c-1.8,0.1-3.4-1-3.9-2.7l-6.7-14.7h-40.9l-6.7,14.7c-0.6,1.7-2.2,2.8-4,2.7
		h-11.9c-1.3,0.1-2.5-0.9-2.6-2.2C357.2,320.4,357.3,319.9,357.5,319.5z M416.5,290.4l-13.7-30.1h-0.4l-13.4,30.1H416.5z"/>
	<path id="fullLogo-15" class="st1" d="M462,307.9c4.5,0,8.1,3.6,8.1,8.1c0,4.5-3.6,8.1-8.1,8.1c-4.5,0-8.1-3.6-8.1-8.1
		C454,311.5,457.6,307.9,462,307.9z M462,322.7c3.7,0,6.7-3,6.7-6.7s-3-6.7-6.7-6.7c-3.7,0-6.7,3-6.7,6.7l0,0
		C455.3,319.7,458.3,322.7,462,322.7C462,322.7,462,322.7,462,322.7z M459.2,312.3c0-0.2,0.2-0.4,0.4-0.4l0,0h3.2
		c1.4-0.1,2.6,0.9,2.8,2.3c0,0.1,0,0.1,0,0.2c0.1,1.2-0.7,2.2-1.8,2.5c0.5,0.9,0.9,1.8,1.4,2.6c0.1,0.2,0,0.5-0.2,0.6
		c-0.1,0-0.1,0-0.2,0H464c-0.2,0-0.3-0.2-0.4-0.3l-1.3-2.8h-1.7v2.7c0,0.2-0.2,0.4-0.4,0.4c0,0,0,0,0,0h-0.6c-0.2,0-0.4-0.2-0.4-0.4
		c0,0,0,0,0,0L459.2,312.3z M462.8,315.7c0.7,0,1.3-0.5,1.3-1.2c0,0,0-0.1,0-0.1c0-0.7-0.5-1.3-1.2-1.3c-0.1,0-0.1,0-0.2,0h-2.2v2.6
		L462.8,315.7z"/>
</g>
</svg>
